<svg width="18" height="18" viewBox="0 0 18 18" fill="none" xmlns="http://www.w3.org/2000/svg">
<path d="M17.6918 3.21954C17.528 1.68448 16.3157 0.471863 14.7805 0.308167C10.9306 -0.102722 7.06943 -0.102722 3.21968 0.308167C1.68448 0.472 0.472 1.68448 0.308167 3.21954C-0.102722 7.06929 -0.102722 10.9306 0.308167 14.7803C0.472 16.3155 1.68448 17.528 3.21954 17.6918C7.06929 18.1027 10.9306 18.1027 14.7805 17.6918C16.3157 17.528 17.528 16.3155 17.6918 14.7803C18.1027 10.9306 18.1027 7.06943 17.6918 3.21954Z" fill="url(#paint0_radial_101:383)"/>
<path d="M16.7128 3.8706C16.5675 2.50843 15.4917 1.43246 14.1294 1.28703C10.7132 0.922554 7.2868 0.922554 3.8706 1.28703C2.50843 1.43246 1.43246 2.50843 1.28703 3.8706C0.922554 7.2868 0.922554 10.7132 1.28703 14.1292C1.43246 15.4915 2.50843 16.5675 3.8706 16.7128C7.2868 17.0774 10.7132 17.0774 14.1292 16.7128C15.4915 16.5675 16.5675 15.4915 16.7128 14.1292C17.0774 10.7132 17.0774 7.2868 16.7128 3.8706Z" fill="url(#paint1_linear_101:383)"/>
<path d="M0.269775 14.4072C0.282135 14.5316 0.294907 14.6561 0.308228 14.7805C0.472061 16.3156 1.68454 17.528 3.21974 17.6919C7.06949 18.1028 10.9308 18.1028 14.7805 17.6919C16.3157 17.528 17.5281 16.3156 17.6919 14.7805C17.7052 14.6561 17.718 14.5316 17.7305 14.4072H0.269775Z" fill="url(#paint2_linear_101:383)"/>
<path d="M17.6918 14.7803C17.9127 12.7117 18.0146 10.6398 17.9981 8.5682L13.8837 4.45382C13.3697 3.86701 12.6189 3.50075 11.7367 3.46903C9.92245 3.40366 8.10243 3.40696 6.2879 3.4693C4.78085 3.52122 3.72699 4.53415 3.45673 6.02294C3.40907 6.28579 3.38051 6.55207 3.34302 6.81684V11.1814C3.36375 11.3229 3.39424 11.4636 3.40372 11.6059C3.46414 12.5115 3.8363 13.2871 4.43217 13.8118L8.61906 17.9986C10.6738 18.013 12.7286 17.9108 14.7805 17.6918C16.3157 17.528 17.528 16.3155 17.6918 14.7803Z" fill="url(#paint3_linear_101:383)"/>
<path d="M17.6918 14.7805C17.5281 16.3154 16.3154 17.5281 14.7804 17.6918C12.7289 17.9107 10.6736 18.013 8.61917 17.9986L4.4386 13.8181C4.92323 14.2423 5.55495 14.5006 6.28801 14.5282C8.10213 14.5963 9.92256 14.5945 11.7367 14.5291C13.3775 14.4698 14.5648 13.2554 14.6161 11.6146C14.6707 9.87245 14.6707 8.12576 14.6161 6.38361C14.5927 5.62665 14.327 4.9606 13.8864 4.4566L17.9982 8.56837C18.0144 10.6397 17.9125 12.7119 17.6918 14.7805Z" fill="url(#paint4_linear_101:383)"/>
<path d="M11.124 7.05092C10.5969 6.47702 9.84062 6.11694 9.00003 6.11694C7.40784 6.11694 6.11694 7.40784 6.11694 9.00003C6.11694 9.84062 6.47702 10.5969 7.05092 11.124L13.7214 17.7944C14.0745 17.7637 14.4276 17.7295 14.7803 17.6919C16.3156 17.528 17.528 16.3156 17.6919 14.7803C17.7295 14.4276 17.7637 14.0745 17.7944 13.7214L11.124 7.05092Z" fill="url(#paint5_linear_101:383)"/>
<path d="M17.9651 10.939L12.5966 5.57065C12.4714 5.40627 12.274 5.29956 12.0514 5.29956C11.6727 5.29956 11.3655 5.60663 11.3655 5.98552C11.3655 6.20813 11.4722 6.40547 11.6366 6.53072L17.8691 12.7634C17.9114 12.1554 17.9434 11.5472 17.9651 10.939Z" fill="url(#paint6_linear_101:383)"/>
<path d="M3.34302 6.81684C3.38051 6.55207 3.40907 6.28579 3.45673 6.02294C3.72685 4.53415 4.78085 3.52122 6.2879 3.4693C8.10243 3.40696 9.92245 3.40366 11.7367 3.46903C13.377 3.52808 14.5649 4.74262 14.6161 6.38343C14.6706 8.12572 14.6706 9.87227 14.6161 11.6146C14.5649 13.2554 13.3774 14.4698 11.7368 14.529C9.92259 14.5945 8.10216 14.5961 6.28804 14.528C4.64751 14.4663 3.51344 13.2491 3.40372 11.6058C3.39424 11.4636 3.36375 11.3227 3.34302 11.1813C3.34302 9.72643 3.34302 8.27157 3.34302 6.81684ZM9.00153 13.5565C9.83182 13.5565 10.6629 13.5814 11.4921 13.5508C12.7922 13.5026 13.5919 12.7267 13.6222 11.4278C13.6599 9.80938 13.6599 8.18876 13.6222 6.5702C13.5919 5.27161 12.7917 4.47758 11.4921 4.44997C9.84267 4.41509 8.19142 4.41537 6.54196 4.44997C5.2523 4.47703 4.4503 5.255 4.41528 6.5393C4.37079 8.17818 4.37079 9.81995 4.41528 11.4588C4.4503 12.743 5.2523 13.503 6.5421 13.5508C7.36086 13.5813 8.18167 13.5565 9.00153 13.5565Z" fill="url(#paint7_linear_101:383)"/>
<path d="M3.34302 6.81684C3.38051 6.55207 3.40907 6.28579 3.45673 6.02294C3.72685 4.53415 4.78085 3.52122 6.2879 3.4693C8.10243 3.40696 9.92245 3.40366 11.7367 3.46903C13.377 3.52808 14.5649 4.74262 14.6161 6.38343C14.6706 8.12572 14.6706 9.87227 14.6161 11.6146C14.5649 13.2554 13.3774 14.4698 11.7368 14.529C9.92259 14.5945 8.10216 14.5961 6.28804 14.528C4.64751 14.4663 3.51344 13.2491 3.40372 11.6058C3.39424 11.4636 3.36375 11.3227 3.34302 11.1813C3.34302 9.72643 3.34302 8.27157 3.34302 6.81684ZM9.00153 13.5565C9.83182 13.5565 10.6629 13.5814 11.4921 13.5508C12.7922 13.5026 13.5919 12.7267 13.6222 11.4278C13.6599 9.80938 13.6599 8.18876 13.6222 6.5702C13.5919 5.27161 12.7917 4.47758 11.4921 4.44997C9.84267 4.41509 8.19142 4.41537 6.54196 4.44997C5.2523 4.47703 4.4503 5.255 4.41528 6.5393C4.37079 8.17818 4.37079 9.81995 4.41528 11.4588C4.4503 12.743 5.2523 13.503 6.5421 13.5508C7.36086 13.5813 8.18167 13.5565 9.00153 13.5565Z" fill="white"/>
<path d="M9.00003 6.117C7.40784 6.117 6.11694 7.40776 6.11694 8.99995C6.11694 10.5923 7.40784 11.883 9.00003 11.883C10.5924 11.883 11.8831 10.5923 11.8831 8.99995C11.8831 7.40776 10.5924 6.117 9.00003 6.117ZM9.00003 10.8904C7.95592 10.8904 7.10956 10.0441 7.10956 8.99995C7.10956 7.95584 7.95592 7.10948 9.00003 7.10948C10.0441 7.10948 10.8905 7.95584 10.8905 8.99995C10.8905 10.0441 10.0441 10.8904 9.00003 10.8904Z" fill="white"/>
<path d="M12.7373 5.98546C12.7373 6.36421 12.4302 6.67128 12.0514 6.67128C11.6727 6.67128 11.3655 6.36421 11.3655 5.98546C11.3655 5.60657 11.6727 5.2995 12.0514 5.2995C12.4302 5.2995 12.7373 5.60657 12.7373 5.98546Z" fill="white"/>
<defs>
<radialGradient id="paint0_radial_101:383" cx="0" cy="0" r="1" gradientUnits="userSpaceOnUse" gradientTransform="translate(3.6899 15.7306) scale(19.8508)">
<stop stop-color="#FAE100"/>
<stop offset="0.0544" stop-color="#FADC04"/>
<stop offset="0.1167" stop-color="#FBCE0E"/>
<stop offset="0.1829" stop-color="#FCB720"/>
<stop offset="0.2514" stop-color="#FE9838"/>
<stop offset="0.3054" stop-color="#FF7950"/>
<stop offset="0.4922" stop-color="#FF1C74"/>
<stop offset="1" stop-color="#6C1CD1"/>
</radialGradient>
<linearGradient id="paint1_linear_101:383" x1="6.9037" y1="7.82083" x2="-23.5904" y2="-9.33212" gradientUnits="userSpaceOnUse">
<stop stop-color="#A1B5D8" stop-opacity="0"/>
<stop offset="0.3094" stop-color="#90A2BD" stop-opacity="0.309804"/>
<stop offset="0.7554" stop-color="#7C8B9C" stop-opacity="0.756863"/>
<stop offset="1" stop-color="#748290"/>
</linearGradient>
<linearGradient id="paint2_linear_101:383" x1="9.00007" y1="15.8895" x2="9.00007" y2="18.6952" gradientUnits="userSpaceOnUse">
<stop stop-color="#FAE100" stop-opacity="0"/>
<stop offset="0.3068" stop-color="#FCA800" stop-opacity="0.305882"/>
<stop offset="0.6275" stop-color="#FE7300" stop-opacity="0.627451"/>
<stop offset="0.8685" stop-color="#FF5200" stop-opacity="0.866667"/>
<stop offset="1" stop-color="#FF4500"/>
</linearGradient>
<linearGradient id="paint3_linear_101:383" x1="7.976" y1="7.95047" x2="3.52129" y2="3.49576" gradientUnits="userSpaceOnUse">
<stop stop-color="#833AB4" stop-opacity="0"/>
<stop offset="1" stop-color="#833AB4"/>
</linearGradient>
<linearGradient id="paint4_linear_101:383" x1="12.3363" y1="16.4632" x2="10.1129" y2="5.9814" gradientUnits="userSpaceOnUse">
<stop stop-color="#833AB4" stop-opacity="0"/>
<stop offset="1" stop-color="#833AB4"/>
</linearGradient>
<linearGradient id="paint5_linear_101:383" x1="13.1824" y1="13.1824" x2="4.25186" y2="4.25186" gradientUnits="userSpaceOnUse">
<stop stop-color="#833AB4" stop-opacity="0"/>
<stop offset="1" stop-color="#833AB4"/>
</linearGradient>
<linearGradient id="paint6_linear_101:383" x1="13.8448" y1="7.77881" x2="10.8916" y2="4.82566" gradientUnits="userSpaceOnUse">
<stop stop-color="#833AB4" stop-opacity="0"/>
<stop offset="1" stop-color="#833AB4"/>
</linearGradient>
<linearGradient id="paint7_linear_101:383" x1="12.5739" y1="5.45092" x2="5.29253" y2="12.7323" gradientUnits="userSpaceOnUse">
<stop stop-color="#833AB4"/>
<stop offset="0.0922" stop-color="#9C3495"/>
<stop offset="0.2927" stop-color="#DC2546"/>
<stop offset="0.392" stop-color="#FD1D1D"/>
<stop offset="0.5589" stop-color="#FC6831"/>
<stop offset="0.6887" stop-color="#FC9B40"/>
<stop offset="0.7521" stop-color="#FCAF45"/>
<stop offset="0.7806" stop-color="#FDB750"/>
<stop offset="0.8656" stop-color="#FECB6A"/>
<stop offset="0.9415" stop-color="#FFD87A"/>
<stop offset="1" stop-color="#FFDC80"/>
</linearGradient>
</defs>
</svg>
