<svg width="20" height="20" viewBox="0 0 20 20" fill="none" xmlns="http://www.w3.org/2000/svg">
<g clip-path="url(#clip0)">
<path d="M16.0747 13.2307C15.4213 12.5856 14.6056 12.5856 13.9564 13.2307C13.4611 13.7218 12.9659 14.2129 12.4789 14.7123C12.3458 14.8496 12.2334 14.8788 12.0711 14.7872C11.7506 14.6124 11.4093 14.4709 11.1014 14.2795C9.66554 13.3764 8.46278 12.2152 7.39736 10.9084C6.86881 10.2592 6.39852 9.56414 6.06974 8.78172C6.00315 8.62357 6.01564 8.51953 6.14465 8.39051C6.63991 7.91191 7.12268 7.42081 7.60961 6.92972C8.28798 6.24718 8.28799 5.44811 7.60545 4.76141C7.2184 4.3702 6.83135 3.98732 6.4443 3.59611C6.04477 3.19657 5.6494 2.79288 5.2457 2.3975C4.5923 1.76075 3.77658 1.76075 3.12734 2.40167C2.62792 2.89276 2.14931 3.39634 1.64157 3.87911C1.17129 4.32442 0.934065 4.86962 0.884123 5.50638C0.805049 6.54267 1.05892 7.52069 1.41683 8.47375C2.14931 10.4464 3.26468 12.1986 4.61727 13.805C6.4443 15.9775 8.62509 17.6963 11.1763 18.9365C12.3249 19.4942 13.5152 19.9229 14.8095 19.9936C15.7002 20.0436 16.4743 19.8188 17.0944 19.1238C17.5189 18.6494 17.9975 18.2165 18.447 17.7629C19.1129 17.0887 19.117 16.273 18.4553 15.6071C17.6645 14.8122 16.8696 14.0214 16.0747 13.2307Z" fill="white"/>
<path d="M15.2797 9.91404L16.8154 9.65184C16.574 8.24099 15.9081 6.96331 14.8968 5.94783C13.8272 4.87824 12.4747 4.20403 10.9847 3.99594L10.7683 5.53997C11.9211 5.70228 12.9699 6.22251 13.7981 7.05071C14.5805 7.83313 15.0924 8.82364 15.2797 9.91404Z" fill="white"/>
<path d="M17.6813 3.23789C15.9083 1.46496 13.6651 0.34543 11.1888 0L10.9724 1.54403C13.1116 1.84368 15.051 2.81338 16.5825 4.34077C18.035 5.79324 18.9881 7.6286 19.3335 9.64708L20.8692 9.38488C20.4655 7.04595 19.3626 4.92342 17.6813 3.23789Z" fill="white"/>
</g>
<defs>
<clipPath id="clip0">
<rect width="20" height="20" fill="white"/>
</clipPath>
</defs>
</svg>
