<svg width="18" height="18" viewBox="0 0 18 18" fill="none" xmlns="http://www.w3.org/2000/svg">
<g clip-path="url(#clip0_101:396)">
<path d="M14.4672 11.9076C13.8791 11.327 13.145 11.327 12.5607 11.9076C12.1149 12.3496 11.6692 12.7916 11.231 13.2411C11.1111 13.3647 11.01 13.3909 10.8639 13.3085C10.5755 13.1512 10.2683 13.0238 9.99116 12.8515C8.69892 12.0387 7.61643 10.9937 6.65755 9.81755C6.18185 9.23323 5.7586 8.60771 5.46269 7.90353C5.40276 7.7612 5.414 7.66756 5.53011 7.55145C5.97584 7.1207 6.41034 6.67871 6.84858 6.23673C7.45911 5.62245 7.45911 4.90328 6.84483 4.28526C6.49649 3.93317 6.14814 3.58857 5.7998 3.23648C5.44022 2.8769 5.08438 2.51357 4.72106 2.15774C4.13299 1.58466 3.39885 1.58466 2.81453 2.16148C2.36506 2.60347 1.93431 3.05669 1.47734 3.49118C1.05409 3.89196 0.840585 4.38264 0.795637 4.95572C0.72447 5.88839 0.952954 6.76861 1.27508 7.62636C1.93431 9.40179 2.93814 10.9787 4.15547 12.4245C5.7998 14.3797 7.76251 15.9267 10.0586 17.0429C11.0924 17.5448 12.1636 17.9306 13.3285 17.9943C14.1301 18.0392 14.8268 17.8369 15.3849 17.2114C15.7669 16.7844 16.1977 16.3949 16.6022 15.9866C17.2015 15.3798 17.2052 14.6457 16.6097 14.0464C15.898 13.331 15.1826 12.6193 14.4672 11.9076Z" fill="#001063"/>
<path d="M13.7518 8.9226L15.1339 8.68663C14.9167 7.41686 14.3174 6.26695 13.4072 5.35301C12.4446 4.39039 11.2272 3.7836 9.8863 3.59631L9.69153 4.98594C10.7291 5.13202 11.673 5.60023 12.4183 6.34561C13.1225 7.04979 13.5832 7.94125 13.7518 8.9226Z" fill="#001063"/>
<path d="M15.913 2.9141C14.3173 1.31846 12.2984 0.310887 10.0698 0L9.875 1.38963C11.8003 1.65931 13.5457 2.53205 14.9241 3.90669C16.2313 5.21392 17.0891 6.86574 17.4 8.68237L18.7821 8.4464C18.4188 6.34135 17.4262 4.43108 15.913 2.9141Z" fill="#001063"/>
</g>
<defs>
<clipPath id="clip0_101:396">
<rect width="18" height="18" fill="white"/>
</clipPath>
</defs>
</svg>
